# xmcd
#
# Track frame offsets:
#	150
#	17517
#	31179
#	44829
#	56322
#	63964
#	75880
#	87374
#	99979
#	115937
#	127503
#	139760
#	154707
#
# Disc length: 2214 seconds
# Revision: 0
# Processed by: cddbd v1.5.2PL0 Copyright (c) Steve Scherf et al.
# Submitted via: dBpowerAMP V12.0
#
DISCID=9008a40d
DTITLE=Bill Runkle and Smith Hollow - Lonely Tonight
DYEAR=2015
DGENRE=Country
TTITLE0=Marching Through Glenville
TTITLE1=Kickin' the Dog
TTITLE2=Carocus
TTITLE3=Hello Trouble
TTITLE4=Billy Boy
TTITLE5=Hard Times
TTITLE6=Jackrabbit
TTITLE7=Someone Took My Place With You
TTITLE8=Lonesome Feeling
TTITLE9=Cheaters in the Soup
TTITLE10=Bully of the Town
TTITLE11=Black Mountain Hop
TTITLE12=I'm Lonely Tonight
EXTD=
EXTT0=
EXTT1=
EXTT2=
EXTT3=
EXTT4=
EXTT5=
EXTT6=
EXTT7=
EXTT8=
EXTT9=
EXTT10=
EXTT11=
EXTT12=
PLAYORDER=
